# xmcd
#
# Track frame offsets:
#	182
#	17962
#	46100
#	59400
#	72425
#	83750
#	94787
#	112937
#	124675
#	135325
#	148037
#	161587
#	177550
#	191400
#
# Disc length: 2717 seconds
#
# Revision: 4
# Processed by: cddbd v1.5.2PL0 Copyright (c) Steve Scherf et al.
# Submitted via: SynApp - FreeCDDB Version: 2.5
#
DISCID=bd0a9b0e
DTITLE=Blues 2 - Blues CD2(4)
DYEAR=0
DGENRE=Blues
TTITLE0=Big Joe Turner - Night time is the right time
TTITLE1=Percy Mayfield - Everyday I have the blues
TTITLE2=Earl King - A part of me
TTITLE3=Louis Armstrong - I can't give anything but love
TTITLE4=Big Joe Williams - Jinx blues
TTITLE5=Lowell Fulson - Blues shadows
TTITLE6=ZZ Hill - Early in the morning
TTITLE7=Etta James - I'd rather go blind
TTITLE8=James Cotton - Turn on your love
TTITLE9=Little Tommy Tuker - High heeled sneakers
TTITLE10=Wang Dang Doodle - Wang Dang Doodle
TTITLE11=T-Bone Walker - Reconsider baby
TTITLE12=Billie Holiday - God bless the child
TTITLE13=Missippi John Hurt - Candy man blues
EXTD=
EXTT0=
EXTT1=
EXTT2=
EXTT3=
EXTT4=
EXTT5=
EXTT6=
EXTT7=
EXTT8=
EXTT9=
EXTT10=
EXTT11=
EXTT12=
EXTT13=
PLAYORDER=
